<svg width="28" height="28" viewBox="0 0 28 28" fill="none" xmlns="http://www.w3.org/2000/svg">
<path fill-rule="evenodd" clip-rule="evenodd" d="M10.0632 23.4498C9.66074 23.4498 9.25824 23.2923 8.94324 22.9948C8.64937 22.6997 8.48437 22.3001 8.48438 21.8836C8.48437 21.4671 8.64937 21.0675 8.94324 20.7723L15.7157 13.9998L8.94324 7.24485C8.64937 6.94968 8.48437 6.55012 8.48438 6.1336C8.48437 5.71708 8.64937 5.31751 8.94324 5.02235C9.23841 4.72847 9.63797 4.56348 10.0545 4.56348C10.471 4.56348 10.8706 4.72847 11.1657 5.02235L19.0407 12.8973C19.3346 13.1925 19.4996 13.5921 19.4996 14.0086C19.4996 14.4251 19.3346 14.8247 19.0407 15.1198L11.1657 22.9948C10.8682 23.2923 10.4657 23.4498 10.0632 23.4498" fill="white"/>
</svg>
